<?xml version="1.0" encoding="UTF-8"?>
<svg width="500" height="500" viewBox="0 0 500 500" xmlns="http://www.w3.org/2000/svg">
  <!-- Asteroid base shape with gradient -->
  <defs>
    <radialGradient id="asteroidGradient" cx="50%" cy="50%" r="50%" fx="50%" fy="50%">
      <stop offset="0%" stop-color="#4a4a4a" />
      <stop offset="70%" stop-color="#2a2a2a" />
      <stop offset="100%" stop-color="#1a1a1a" />
    </radialGradient>
    <filter id="glow" x="-20%" y="-20%" width="140%" height="140%">
      <feGaussianBlur stdDeviation="10" result="blur" />
      <feComposite in="SourceGraphic" in2="blur" operator="over" />
    </filter>
  </defs>
  
  <!-- Asteroid glow effect -->
  <circle cx="250" cy="250" r="200" fill="#3b82f6" opacity="0.2" filter="url(#glow)" />
  
  <!-- Main asteroid body with irregular shape -->
  <path d="M250,50 
           C300,30 350,70 380,120 
           C410,170 420,220 410,270 
           C400,320 380,370 330,400 
           C280,430 230,440 180,430 
           C130,420 80,390 50,340 
           C20,290 10,240 20,190 
           C30,140 60,90 110,60 
           C160,30 200,70 250,50 Z" 
        fill="url(#asteroidGradient)" />
  
  <!-- Craters -->
  <circle cx="180" cy="150" r="25" fill="#1a1a1a" opacity="0.7" />
  <circle cx="300" cy="200" r="35" fill="#1a1a1a" opacity="0.8" />
  <circle cx="220" cy="300" r="30" fill="#1a1a1a" opacity="0.6" />
  <circle cx="150" cy="250" r="20" fill="#1a1a1a" opacity="0.7" />
  <circle cx="330" cy="280" r="15" fill="#1a1a1a" opacity="0.6" />
  
  <!-- Surface details -->
  <path d="M150,120 L170,140 L160,160 L140,150 Z" fill="#3a3a3a" opacity="0.6" />
  <path d="M280,150 L310,160 L300,190 L270,180 Z" fill="#3a3a3a" opacity="0.5" />
  <path d="M200,250 L230,260 L220,290 L190,280 Z" fill="#3a3a3a" opacity="0.7" />
  <path d="M310,300 L330,310 L320,330 L300,320 Z" fill="#3a3a3a" opacity="0.6" />
  
  <!-- Highlights -->
  <path d="M150,100 L170,110 L160,130 L140,120 Z" fill="#5a5a5a" opacity="0.4" />
  <path d="M300,150 L320,160 L310,180 L290,170 Z" fill="#5a5a5a" opacity="0.3" />
  <path d="M220,270 L240,280 L230,300 L210,290 Z" fill="#5a5a5a" opacity="0.5" />
</svg>
